<?xml version="1.0" encoding="utf-8"?>
<!-- Svg Vector Icons : http://www.onlinewebfonts.com/icon -->
<!DOCTYPE svg PUBLIC "-//W3C//DTD SVG 1.1//EN" "http://www.w3.org/Graphics/SVG/1.1/DTD/svg11.dtd">
<svg version="1.1" xmlns="http://www.w3.org/2000/svg" xmlns:xlink="http://www.w3.org/1999/xlink" x="0px" y="0px" viewBox="0 0 1000 1000" enable-background="new 0 0 1000 1000" xml:space="preserve">
<metadata> Svg Vector Icons : http://www.onlinewebfonts.com/icon </metadata>
<g><g transform="translate(0.000000,485.000000) scale(0.100000,-0.100000)"><path d="M155.5,4436.1l-55.5-55.5v-3765c0-2543.8,5.7-3776.4,19.1-3801.3c53.6-97.6-105.3-93.8,3163.9-93.8H6315l97.6,197.1c55.5,107.2,145.5,258.4,204.8,335c57.4,76.6,105.3,145.5,105.3,149.3c0,5.8-36.4,59.3-82.3,118.7c-185.7,245-308.2,495.7-392.4,805.8c-49.8,181.8-49.8,193.3-57.4,983.8l-5.7,798.2h1014.5h1016.4v162.7v162.7h669.9h669.9V271.1V108.4h172.3H9900v2136.1v2136.1l-55.5,55.5l-55.5,55.5H5000H211L155.5,4436.1z M1784.4,3391V2635h-669.9H444.5V3391v756.1h669.9h669.9V3391z M9555.5,3391V2635h-669.9h-669.9V3391v756.1h669.9h669.9V3391z M1784.4,1534.4V778.3h-669.9H444.5v756.1v756.1h669.9h669.9V1534.4z M9555.5,1534.4V778.3h-669.9h-669.9v756.1v756.1h669.9h669.9V1534.4z M5241.2,1408c484.3-308.2,918.8-583.8,970.4-614.4c179.9-112.9,185.7-250.7,17.2-356c-49.8-30.6-484.2-306.3-968.5-614.4C4309-779.7,4301.4-783.5,4205.7-685.9l-47.9,45.9V600.3c0,1110.2,3.8,1246,30.6,1284.3c32.5,45.9,88.1,76.6,143.6,78.5C4349.2,1965,4758.8,1714.3,5241.2,1408z M1784.4-322.3v-756.1h-669.9H444.5v756.1v756.1h669.9h669.9V-322.3z M1784.4-2178.9V-2935h-669.9H444.5v756.1v756.1h669.9h669.9V-2178.9z"/><path d="M6406.8-456.3c-32.5-30.6-47.9-67-47.9-114.8c0-111,67-162.7,206.7-162.7h112.9l11.5-329.2c15.3-442.1,70.8-656.5,250.8-960.9c93.8-156.9,315.8-402,449.8-491.9c53.6-36.4,97.6-70.8,97.6-78.5c0-5.7-40.2-42.1-90-78.5c-103.3-76.6-306.3-275.6-379-377.1c-222-298.6-312-595.3-329.2-1073.8l-11.5-319.7l-111-7.7c-137.8-9.6-208.6-65.1-208.6-160.8c0-88.1,17.2-120.6,78.5-151.2c45.9-24.9,281.4-28.7,1613.6-28.7h1558l59.3,49.8c74.6,63.2,80.4,153.1,15.3,229.7c-38.3,44-65.1,53.6-160.8,61.3l-114.8,7.7l-13.4,310.1c-13.4,363.7-55.5,557-164.6,790.5c-124.4,268-313.9,497.7-557,679.5l-90,67L8698-2512c191.4,137.8,398.1,384.7,511.1,604.9c124.4,246.9,170.3,457.5,187.6,863.2l11.5,310.1H9521c93.8,0,120.6,7.7,158.9,47.9c65.1,63.2,65.1,166.5,0,229.7l-45.9,47.9H8043.4H6452.8L6406.8-456.3z M9052.1-1053.4c-5.7-204.8-21.1-359.8-40.2-428.7c-112.9-400-377.1-715.9-756.1-907.3c-89.9-44-122.5-51.7-239.3-44c-118.7,5.7-153.1,17.2-279.4,90c-185.7,109.1-430.7,352.2-526.4,524.4c-135.9,245-168.4,380.9-178,756.1l-7.7,329.2h1018.3h1020.2L9052.1-1053.4z M8259.6-2802.9c145.5-74.7,289-183.8,405.8-306.3c285.2-302.4,390.5-593.4,392.4-1092.9v-245H8043.4H7028.9v258.4c0,331.1,34.5,505.3,143.6,727.3c134,275.6,338.8,488.1,608.7,633.5c103.4,55.5,137.8,65.1,258.4,65.1C8144.8-2762.7,8198.4-2772.3,8259.6-2802.9z"/></g></g>
</svg>